# Blender v2.82 (sub 7) OBJ File: ''
# www.blender.org
mtllib shape.mtl
o Cube
v -1.000000 1.000000 1.000000
v -1.000000 -0.490831 1.000000
v -1.000000 1.000000 -1.000000
v -1.000000 -0.490831 -1.000000
v 1.000000 1.000000 1.000000
v 1.000000 -1.000000 1.000000
v 1.000000 1.000000 -1.000000
v 1.000000 -1.000000 -1.000000
v 1.000000 -1.000000 0.000000
v 0.000000 -1.000000 1.000000
v -1.000000 0.000000 1.000000
v -1.000000 0.000000 -1.000000
v 1.000000 0.000000 1.000000
v -1.000000 0.703933 0.000000
v 0.000000 -1.000000 -1.000000
v 0.000000 1.000000 1.000000
v -1.000000 -0.490831 0.000000
v 0.000000 0.000000 1.000000
v -1.000000 0.000000 0.000000
v 0.000000 -1.000000 0.000000
vt 0.875000 0.750000
vt 0.625000 0.750000
vt 0.625000 0.625000
vt 0.625000 1.000000
vt 0.375000 1.000000
vt 0.375000 0.875000
vt 0.375000 0.125000
vt 0.500000 0.250000
vt 0.375000 0.250000
vt 0.375000 0.625000
vt 0.250000 0.750000
vt 0.250000 0.625000
vt 0.500000 0.750000
vt 0.500000 0.625000
vt 0.625000 0.375000
vt 0.500000 0.500000
vt 0.500000 0.375000
vt 0.375000 0.500000
vt 0.375000 0.375000
vt 0.625000 0.250000
vt 0.375000 0.750000
vt 0.125000 0.750000
vt 0.125000 0.625000
vt 0.250000 0.500000
vt 0.125000 0.500000
vt 0.625000 0.000000
vt 0.625000 0.500000
vt 0.750000 0.500000
vt 0.875000 0.500000
vt 0.375000 0.000000
vn 0.0000 0.9589 0.2839
vn 0.0000 0.0000 -1.0000
vn 1.0000 0.0000 0.0000
vn -0.4537 -0.8911 0.0000
vn -1.0000 0.0000 0.0000
vn 0.0000 0.0000 1.0000
vn 0.0000 -1.0000 0.0000
vn 0.0000 0.9589 -0.2839
vn -0.1927 0.9765 -0.0964
vn 0.0000 1.0000 0.0000
usemtl Material
s off
f 7/1/1 3/2/1 14/3/1
f 7/4/2 8/5/2 15/6/2
f 9/7/3 13/8/3 6/9/3
f 17/10/4 15/11/4 20/12/4
f 14/3/5 12/13/5 19/14/5
f 16/15/6 11/16/6 18/17/6
f 18/17/6 2/18/6 10/19/6
f 13/8/6 10/19/6 6/9/6
f 5/20/6 18/17/6 13/8/6
f 19/14/5 4/21/5 17/10/5
f 11/16/5 17/10/5 2/18/5
f 11/16/5 14/3/5 19/14/5
f 20/12/7 8/22/7 9/23/7
f 10/24/7 9/23/7 6/25/7
f 2/18/4 20/12/4 10/24/4
f 7/26/3 13/8/3 9/7/3
f 4/21/2 12/13/2 15/6/2
f 1/27/8 16/28/8 14/3/8
f 14/3/9 16/28/9 7/1/9
f 16/28/10 5/29/10 7/1/10
f 15/6/2 12/13/2 7/4/2
f 12/13/2 3/2/2 7/4/2
f 17/10/4 4/21/4 15/11/4
f 14/3/5 3/2/5 12/13/5
f 16/15/6 1/27/6 11/16/6
f 18/17/6 11/16/6 2/18/6
f 13/8/6 18/17/6 10/19/6
f 5/20/6 16/15/6 18/17/6
f 19/14/5 12/13/5 4/21/5
f 11/16/5 19/14/5 17/10/5
f 11/16/5 1/27/5 14/3/5
f 20/12/7 15/11/7 8/22/7
f 10/24/7 20/12/7 9/23/7
f 2/18/4 17/10/4 20/12/4
f 9/7/3 8/30/3 7/26/3
f 7/26/3 5/20/3 13/8/3
